<svg width="540" height="485" xmlns="http://www.w3.org/2000/svg" stroke="null" style="vector-effect: non-scaling-stroke;" preserveAspectRatio="xMidYMid meet" version="1.0">
 <g stroke="null">
  <title stroke="null">Layer 1</title>
  <g stroke="null" id="svg_1" fill="#d2081f" transform="translate(0 2000) scale(0.1 -0.1)">
   <path stroke="null" id="svg_2" d="m2617.37156,19946.18377c-10.52428,-13.15535 -43.41266,-61.83015 -73.66997,-109.18942c-28.94177,-47.35926 -80.24764,-130.23798 -114.45156,-184.17492c-67.09229,-107.87388 -80.24764,-143.39333 -68.40783,-186.80599c3.94661,-17.10196 52.62141,-89.45639 107.87388,-161.81082c55.25248,-72.35443 123.6603,-171.01957 152.60207,-219.69437c27.62624,-47.35926 61.83015,-90.77192 72.35443,-96.03406c31.57284,-11.83982 61.83015,27.62624 107.87388,139.44672c22.3641,55.25248 71.0389,151.28654 106.55835,213.11669c36.83498,63.14569 65.77676,130.23798 65.77676,149.971c0,38.15052 -106.55835,231.53418 -207.85455,380.18965c-67.09229,98.66513 -110.50495,119.7137 -148.65547,74.9855z"/>
   <path stroke="null" id="svg_3" d="m3615.86272,19635.71748c-85.50978,-52.62141 -236.79632,-172.3351 -294.67987,-234.16525c-157.86422,-171.01957 -317.04397,-456.49069 -386.76733,-698.54915c-71.0389,-242.05846 -48.6748,-274.94684 169.70403,-248.63614c399.92268,48.6748 451.22855,61.83015 474.90818,127.60691c7.89321,18.41749 51.30587,261.79149 98.66513,540.68494c86.82532,522.26745 88.14085,556.47136 35.51945,556.47136c-13.15535,0 -56.56801,-19.73303 -97.3496,-43.41266z"/>
   <path stroke="null" id="svg_4" d="m1621.51147,19512.05717c-31.57284,-11.83982 -42.09712,-65.77676 -27.62624,-138.13119c6.57768,-38.15052 32.88838,-209.17009 57.88355,-380.18965c61.83015,-428.86445 72.35443,-481.48586 97.3496,-514.37423c30.25731,-35.51945 174.96617,-49.99033 539.3694,-49.99033c276.26238,-1.31554 303.88861,3.94661 303.88861,53.93694c0,82.87871 -131.55351,352.56341 -251.26721,513.0587c-178.91278,240.74293 -616.98597,555.15582 -719.59771,515.68977z"/>
   <path stroke="null" id="svg_5" d="m3361.96444,18249.14345c-72.35443,-10.52428 -196.01473,-26.3107 -274.94684,-34.20391c-199.96134,-22.3641 -188.12152,0 -194.6992,-395.97607l-3.94661,-314.4129l34.20391,-24.99517c19.73303,-14.47089 96.03406,-44.72819 171.01957,-65.77676c111.82049,-32.88838 168.3885,-40.78159 313.09736,-46.04373c180.22831,-7.89321 338.09253,9.20875 419.65571,43.41266c36.83498,14.47089 42.09712,22.3641 42.09712,67.09229c0,49.99033 -55.25248,227.58758 -177.59724,566.99564c-86.82532,242.05846 -82.87871,239.42739 -328.88378,203.90794zm90.77192,-324.93718c56.56801,-23.67963 102.61174,-82.87871 92.08746,-118.39816c-3.94661,-15.78642 -30.25731,-49.99033 -57.88355,-76.30104c-44.72819,-43.41266 -59.19908,-49.99033 -114.45156,-49.99033c-106.55835,1.31554 -201.27687,57.88355 -201.27687,123.6603c0,28.94177 59.19908,93.40299 107.87388,117.08263c53.93694,26.3107 115.76709,27.62624 173.65064,3.94661z"/>
   <path stroke="null" id="svg_6" d="m1751.74945,18183.3667c-30.25731,-26.3107 -44.72819,-86.82532 -99.98067,-411.76249c-35.51945,-209.17009 -38.15052,-277.57791 -10.52428,-285.47112c36.83498,-13.15535 115.76709,111.82049 167.07296,263.10703c32.88838,96.03406 63.14569,311.78183 53.93694,373.61198c-11.83982,78.93211 -57.88355,103.92728 -110.50495,60.51462z"/>
   <path stroke="null" id="svg_7" d="m2121.41482,18183.3667c-46.04373,-9.20875 -63.14569,-51.30587 -81.56318,-201.27687c-24.99517,-214.43223 -47.35926,-298.62647 -118.39816,-442.0198c-71.0389,-143.39333 -159.17975,-252.58274 -282.84005,-347.30127c-40.78159,-31.57284 -78.93211,-67.09229 -86.82532,-80.24764c-22.3641,-42.09712 -36.83498,-146.0244 -23.67963,-178.91278c55.25248,-146.0244 518.32084,273.63131 630.14133,570.94225c57.88355,152.60207 105.24281,407.81589 105.24281,559.10243c0,90.77192 -52.62141,135.50012 -142.07779,119.7137z"/>
   <path stroke="null" id="svg_8" d="m2517.39089,18183.3667c-52.62141,-10.52428 -60.51462,-38.15052 -71.0389,-231.53418c-15.78642,-294.67987 -84.19425,-509.11209 -238.11186,-743.27735c-149.971,-227.58758 -338.09253,-390.71393 -611.72383,-527.52959c-121.02923,-60.51462 -148.65547,-90.77192 -148.65547,-163.12636c0,-117.08263 47.35926,-127.60691 230.21865,-51.30587c268.36917,111.82049 547.26261,345.98574 728.80646,611.72383c84.19425,123.6603 172.3351,330.19932 211.80116,498.58781c51.30587,210.48562 73.66997,431.49552 53.93694,506.48102c-15.78642,59.19908 -44.72819,96.03406 -73.66997,96.03406c-9.20875,0 -24.99517,2.63107 -35.51945,5.26214c-9.20875,2.63107 -30.25731,1.31554 -46.04373,-1.31554z"/>
   <path stroke="null" id="svg_9" d="m4898.50947,18126.79869c-23.67963,-5.26214 -59.19908,-19.73303 -78.93211,-32.88838c-68.40783,-44.72819 -85.50978,-78.93211 -115.76709,-221.0099c-5.26214,-23.67963 -22.3641,-46.04373 -48.6748,-59.19908c-105.24281,-57.88355 -155.23315,-124.97584 -155.23315,-206.53902c0,-99.98067 57.88355,-176.28171 160.49529,-206.53902c42.09712,-11.83982 63.14569,-10.52428 122.34477,7.89321c109.18942,34.20391 126.29137,10.52428 57.88355,-82.87871c-60.51462,-84.19425 -48.6748,-94.71853 96.03406,-90.77192c71.0389,2.63107 122.34477,9.20875 124.97584,18.41749c2.63107,7.89321 -13.15535,36.83498 -35.51945,64.46122c-39.46605,49.99033 -49.99033,90.77192 -26.3107,105.24281c6.57768,3.94661 44.72819,-2.63107 85.50978,-13.15535c85.50978,-24.99517 135.50012,-17.10196 192.06813,28.94177c55.25248,46.04373 77.61657,97.3496 77.61657,172.3351c0,84.19425 -39.46605,142.07779 -128.92244,190.75259c-49.99033,27.62624 -69.72336,46.04373 -74.9855,72.35443c-21.04856,110.50495 -38.15052,156.54868 -63.14569,184.17492c-52.62141,56.56801 -123.6603,81.56318 -189.43706,68.40783z"/>
   <path stroke="null" id="svg_10" d="m296.7676,18038.65783c-126.29137,-24.99517 -207.85455,-92.08746 -238.11186,-197.33027c-42.09712,-142.07779 -6.57768,-209.17009 228.90311,-440.70427c224.95651,-223.64097 201.27687,-223.64097 439.38873,11.83982c209.17009,207.85455 242.05846,259.16042 230.21865,365.71877c-21.04856,199.96134 -180.22831,299.94201 -390.71393,243.374c-53.93694,-14.47089 -96.03406,-11.83982 -230.21865,18.41749c-6.57768,1.31554 -24.99517,1.31554 -39.46605,-1.31554z"/>
   <path stroke="null" id="svg_11" d="m2809.43969,17270.38532c-31.57284,-15.78642 -218.37883,-373.61198 -217.0633,-415.7091c0,-36.83498 60.51462,-86.82532 173.65064,-143.39333c102.61174,-52.62141 142.07779,-52.62141 163.12636,-5.26214c9.20875,18.41749 19.73303,139.44672 23.67963,271.00024c9.20875,217.0633 7.89321,239.42739 -14.47089,265.7381c-27.62624,34.20391 -90.77192,47.35926 -128.92244,27.62624z"/>
   <path stroke="null" id="svg_12" d="m3186.99827,17166.45804c-48.6748,-21.04856 -56.56801,-68.40783 -52.62141,-326.25271l3.94661,-242.05846l35.51945,-30.25731c19.73303,-17.10196 68.40783,-38.15052 107.87388,-46.04373c118.39816,-23.67963 147.33993,9.20875 113.13602,131.55351c-26.3107,96.03406 -52.62141,273.63131 -52.62141,363.0877c0,69.72336 -5.26214,101.2962 -22.3641,122.34477c-27.62624,31.57284 -89.45639,46.04373 -132.86905,27.62624z"/>
   <path stroke="null" id="svg_13" d="m3547.4549,17138.8318c-30.25731,-23.67963 -34.20391,-36.83498 -34.20391,-101.2962c0,-155.23315 85.50978,-490.6946 139.44672,-548.57815c27.62624,-30.25731 39.46605,-32.88838 155.23315,-32.88838c68.40783,0 132.86905,3.94661 144.70886,7.89321c36.83498,14.47089 23.67963,56.56801 -65.77676,217.0633c-47.35926,85.50978 -110.50495,222.32544 -138.13119,303.88861c-28.94177,81.56318 -61.83015,156.54868 -73.66997,165.75743c-32.88838,23.67963 -88.14085,19.73303 -127.60691,-11.83982z"/>
   <path stroke="null" id="svg_14" d="m2456.87628,16003.52499c-101.2962,-86.82532 -240.74293,-236.79632 -268.36917,-289.41773c-35.51945,-68.40783 -35.51945,-164.44189 -1.31554,-230.21865c46.04373,-88.14085 77.61657,-106.55835 201.27687,-110.50495c98.66513,-2.63107 105.24281,-3.94661 109.18942,-32.88838c2.63107,-17.10196 -9.20875,-46.04373 -28.94177,-69.72336c-18.41749,-22.3641 -34.20391,-46.04373 -34.20391,-51.30587c0,-23.67963 52.62141,-39.46605 131.55351,-39.46605c81.56318,0 131.55351,15.78642 131.55351,40.78159c0,7.89321 -14.47089,32.88838 -34.20391,53.93694c-18.41749,22.3641 -31.57284,52.62141 -28.94177,68.40783c3.94661,24.99517 14.47089,27.62624 118.39816,34.20391c103.92728,6.57768 118.39816,10.52428 153.91761,44.72819c71.0389,68.40783 89.45639,185.49045 46.04373,280.20898c-27.62624,56.56801 -282.84005,326.25271 -336.77699,353.87895c-55.25248,28.94177 -68.40783,23.67963 -159.17975,-52.62141z"/>
  </g>
 </g>

</svg>